# xmcd CD database file
#
# Track frame offsets:
#	150
#	11466
#	30456
#	45536
#	61691
#	75867
#	90752
#	102813
#	120957
#	137875
#	149174
#	160608
#	173337
#	188545
#	203425
#
# Disc length: 2936 seconds
#
# Revision: 0
# Processed by: cddbd v1.5.2PL0 Copyright (c) Steve Scherf et al.
# Submitted via: CDex 1.51
#
DISCID=9d0b760f
DTITLE=Anais Mitchell - xoa
DYEAR=2014
DGENRE=Country
TTITLE0=Any Way the Wind Blows
TTITLE1=Out of Pawn
TTITLE2=Your Fonder Heart
TTITLE3=Why We Build the Wall
TTITLE4=Now You Know
TTITLE5=If It's True
TTITLE6=Namesake
TTITLE7=Young Man in America
TTITLE8=Two Kids
TTITLE9=The Pursewarden Affair
TTITLE10=His Kiss the Riot
TTITLE11=Come September
TTITLE12=You Are Forgiven
TTITLE13=Our Lady of the Underground
TTITLE14=Cosmic American
EXTD=YEAR: 2014
EXTT0=
EXTT1=
EXTT2=
EXTT3=
EXTT4=
EXTT5=
EXTT6=
EXTT7=
EXTT8=
EXTT9=
EXTT10=
EXTT11=
EXTT12=
EXTT13=
EXTT14=
PLAYORDER=
